<?xml version="1.0" encoding="UTF-8"?>
<svg width="395px" height="47px" viewBox="0 0 395 47" version="1.1" xmlns="http://www.w3.org/2000/svg" xmlns:xlink="http://www.w3.org/1999/xlink">
    <title>GraphQL Logo Dark</title>
    <g id="GraphQL-Logo-Dark" stroke="none" stroke-width="1" fill="none" fill-rule="evenodd">
        <g id="logo-light" transform="translate(9.000000, 4.000000)" fill-rule="nonzero">
            <path d="M41.82,31 L41.82,17.112 L44.984,17.112 L45.264,19.464 C45.6933,18.6427 46.3093,17.9893 47.112,17.504 C47.9333,17.0187 48.8947,16.776 49.996,16.776 C51.7133,16.776 53.048,17.3173 54,18.4 C54.952,19.4827 55.428,21.0693 55.428,23.16 L55.428,31 L51.844,31 L51.844,23.496 C51.844,22.3013 51.6013,21.3867 51.116,20.752 C50.6307,20.1173 49.8747,19.8 48.848,19.8 C47.84,19.8 47.0093,20.1547 46.356,20.864 C45.7213,21.5733 45.404,22.5627 45.404,23.832 L45.404,31 L41.82,31 Z M72.2392,17.112 L72.2392,31 L69.0752,31 L68.7952,28.648 C68.3658,29.4693 67.7405,30.1227 66.9192,30.608 C66.1165,31.0933 65.1645,31.336 64.0632,31.336 C62.3458,31.336 61.0112,30.7947 60.0592,29.712 C59.1072,28.6293 58.6312,27.0427 58.6312,24.952 L58.6312,17.112 L62.2152,17.112 L62.2152,24.616 C62.2152,25.8107 62.4578,26.7253 62.9432,27.36 C63.4285,27.9947 64.1845,28.312 65.2112,28.312 C66.2192,28.312 67.0405,27.9573 67.6752,27.248 C68.3285,26.5387 68.6552,25.5493 68.6552,24.28 L68.6552,17.112 L72.2392,17.112 Z M74.5743,31 L79.6143,24.056 L74.5743,17.112 L78.4103,17.112 L81.9383,22.04 L85.4383,17.112 L89.3023,17.112 L84.2343,24.056 L89.3023,31 L85.4383,31 L81.9383,26.072 L78.4103,31 L74.5743,31 Z M97.7736,31 C96.3176,31 95.151,30.6453 94.2736,29.936 C93.3963,29.2267 92.9576,27.9667 92.9576,26.156 L92.9576,20.108 L90.5776,20.108 L90.5776,17.112 L92.9576,17.112 L93.3776,13.388 L96.5416,13.388 L96.5416,17.112 L100.2936,17.112 L100.2936,20.108 L96.5416,20.108 L96.5416,26.184 C96.5416,26.856 96.6816,27.3227 96.9616,27.584 C97.2603,27.8267 97.7643,27.948 98.4736,27.948 L100.2096,27.948 L100.2096,31 L97.7736,31 Z M102.195,34.108 L109.195,9.244 L112.695,9.244 L105.667,34.108 L102.195,34.108 Z" id="Shape" fill="#FFFFFF"></path>
            <g id="GraphQL_Logo" fill="#E535AB">
                <polygon id="Rectangle" transform="translate(10.499947, 15.502510) rotate(-149.999272) translate(-10.499947, -15.502510) " points="9.7386095 -0.467618496 11.4028074 -0.474953147 11.261284 31.4726384 9.59708608 31.479973"></polygon>
                <rect id="Rectangle" x="2" y="26" width="31" height="2"></rect>
                <polygon id="Rectangle" transform="translate(10.503776, 31.497266) rotate(-149.999272) translate(-10.503776, -31.497266) " points="1.23405162 30.7102718 19.7808354 30.6285302 19.7735007 32.2842593 1.22671697 32.3660009"></polygon>
                <polygon id="Rectangle" transform="translate(24.492224, 7.512365) rotate(-149.999272) translate(-24.492224, -7.512365) " points="15.222499 6.72537132 33.7692827 6.64362972 33.7619481 8.29935879 15.2151643 8.38110038"></polygon>
                <polygon id="Rectangle" transform="translate(10.508239, 7.506077) rotate(-120.000728) translate(-10.508239, -7.506077) " points="9.72124509 -1.76364726 11.3769742 -1.77098191 11.2952326 16.7758018 9.6395035 16.7831365"></polygon>
                <polygon id="Rectangle" transform="translate(24.503672, 15.502808) rotate(-120.000728) translate(-24.503672, -15.502808) " points="8.53354319 14.7414712 40.4811347 14.5999478 40.4738001 16.2641457 8.52620854 16.4056691"></polygon>
                <rect id="Rectangle" x="3" y="10" width="2" height="19"></rect>
                <rect id="Rectangle" x="30" y="10" width="2" height="19"></rect>
                <polygon id="Rectangle" transform="translate(24.492153, 31.488083) rotate(-120.000728) translate(-24.492153, -31.488083) " points="23.804565 23.4259414 25.2508344 23.4195347 25.1797413 39.5502239 23.7334719 39.5566307"></polygon>
                <path d="M34.5265968,29.2494954 C33.5650366,30.9237975 31.4215586,31.4952659 29.7488444,30.5327928 C28.0761302,29.5703197 27.5052038,27.4248068 28.4667641,25.7505046 C29.4283243,24.0762025 31.5718023,23.5047341 33.2445165,24.4672072 C34.9272469,25.439706 35.4981733,27.5751932 34.5265968,29.2494954" id="Path"></path>
                <path d="M6.53279282,13.2494954 C5.57031972,14.9237975 3.42480679,15.4952659 1.75050464,14.5327928 C0.0762024888,13.5703197 -0.49526591,11.4248068 0.467207183,9.75050464 C1.42968028,8.07620249 3.57519321,7.50473409 5.24949536,8.46720718 C6.92379751,9.43970604 7.49526591,11.5751932 6.53279282,13.2494954" id="Path"></path>
                <path d="M0.467207183,29.2494954 C-0.49526591,27.5751932 0.0762024888,25.439706 1.75050464,24.4672072 C3.42480679,23.5047341 5.56029396,24.0762025 6.53279282,25.7505046 C7.49526591,27.4248068 6.92379751,29.560294 5.24949536,30.5327928 C3.56516745,31.4952659 1.42968028,30.9237975 0.467207183,29.2494954" id="Path"></path>
                <path d="M28.4672072,13.2494954 C27.5047341,11.5751932 28.0762025,9.43970604 29.7505046,8.46720718 C31.4248068,7.50473409 33.560294,8.07620249 34.5327928,9.75050464 C35.4952659,11.4248068 34.9237975,13.560294 33.2494954,14.5327928 C31.5751932,15.4952659 29.4296803,14.9237975 28.4672072,13.2494954" id="Path"></path>
                <path d="M17.5,39 C15.5644699,39 14,37.4355301 14,35.5 C14,33.5644699 15.5644699,32 17.5,32 C19.4355301,32 21,33.5644699 21,35.5 C21,37.4255014 19.4355301,39 17.5,39" id="Path"></path>
                <path d="M17.5,7 C15.5644699,7 14,5.43553009 14,3.5 C14,1.56446991 15.5644699,0 17.5,0 C19.4355301,0 21,1.56446991 21,3.5 C21,5.43553009 19.4355301,7 17.5,7" id="Path"></path>
            </g>
            <path d="M124.056,37.24 C125.954667,37.24 127.469333,36.984 128.6,36.472 C129.730667,35.96 130.594667,35.336 131.192,34.6 C131.789333,33.864 132.178667,33.0693333 132.36,32.216 C132.541333,31.3626667 132.632,30.6053333 132.632,29.944 L132.632,14.456 L128.312,14.456 L128.312,16.664 L128.248,16.664 C127.693333,15.704 127.005333,15.0213333 126.184,14.616 C125.362667,14.2106667 124.408,14.008 123.32,14.008 C122.168,14.008 121.149333,14.232 120.264,14.68 C119.378667,15.128 118.637333,15.7306667 118.04,16.488 C117.442667,17.2453333 116.989333,18.12 116.68,19.112 C116.370667,20.104 116.216,21.1333333 116.216,22.2 C116.216,23.3306667 116.349333,24.4026667 116.616,25.416 C116.882667,26.4293333 117.304,27.3146667 117.88,28.072 C118.456,28.8293333 119.192,29.4266667 120.088,29.864 C120.984,30.3013333 122.050667,30.52 123.288,30.52 C124.290667,30.52 125.245333,30.312 126.152,29.896 C127.058667,29.48 127.757333,28.8346667 128.248,27.96 L128.312,27.96 L128.312,30.136 C128.333333,31.3093333 128.050667,32.28 127.464,33.048 C126.877333,33.816 125.944,34.2 124.664,34.2 C123.853333,34.2 123.138667,34.0346667 122.52,33.704 C121.901333,33.3733333 121.485333,32.7813333 121.272,31.928 L116.76,31.928 C116.824,32.8666667 117.085333,33.672 117.544,34.344 C118.002667,35.016 118.578667,35.5653333 119.272,35.992 C119.965333,36.4186667 120.733333,36.7333333 121.576,36.936 C122.418667,37.1386667 123.245333,37.24 124.056,37.24 Z M124.44,27.096 C123.736,27.096 123.149333,26.9466667 122.68,26.648 C122.210667,26.3493333 121.832,25.9653333 121.544,25.496 C121.256,25.0266667 121.053333,24.4986667 120.936,23.912 C120.818667,23.3253333 120.76,22.7333333 120.76,22.136 C120.76,21.5173333 120.829333,20.9253333 120.968,20.36 C121.106667,19.7946667 121.330667,19.2933333 121.64,18.856 C121.949333,18.4186667 122.333333,18.072 122.792,17.816 C123.250667,17.56 123.8,17.432 124.44,17.432 C125.186667,17.432 125.805333,17.5706667 126.296,17.848 C126.786667,18.1253333 127.181333,18.4986667 127.48,18.968 C127.778667,19.4373333 127.992,19.976 128.12,20.584 C128.248,21.192 128.312,21.8373333 128.312,22.52 C128.312,23.1173333 128.232,23.688 128.072,24.232 C127.912,24.776 127.672,25.2613333 127.352,25.688 C127.032,26.1146667 126.626667,26.456 126.136,26.712 C125.645333,26.968 125.08,27.096 124.44,27.096 Z M141.824,31 L141.824,23.544 C141.824,22.7973333 141.898667,22.104 142.048,21.464 C142.197333,20.824 142.448,20.264 142.8,19.784 C143.152,19.304 143.616,18.9253333 144.192,18.648 C144.768,18.3706667 145.472,18.232 146.304,18.232 C146.581333,18.232 146.869333,18.248 147.168,18.28 C147.466667,18.312 147.722667,18.3493333 147.936,18.392 L147.936,14.168 C147.573333,14.0613333 147.242667,14.008 146.944,14.008 C146.368,14.008 145.813333,14.0933333 145.28,14.264 C144.746667,14.4346667 144.245333,14.6746667 143.776,14.984 C143.306667,15.2933333 142.890667,15.6666667 142.528,16.104 C142.165333,16.5413333 141.877333,17.016 141.664,17.528 L141.6,17.528 L141.6,14.456 L137.28,14.456 L137.28,31 L141.824,31 Z M155.656,31.416 C156.68,31.416 157.682667,31.2666667 158.664,30.968 C159.645333,30.6693333 160.498667,30.1466667 161.224,29.4 C161.245333,29.6773333 161.282667,29.9493333 161.336,30.216 C161.389333,30.4826667 161.458667,30.744 161.544,31 L161.544,31 L166.152,31 C165.938667,30.6586667 165.789333,30.1466667 165.704,29.464 C165.618667,28.7813333 165.576,28.0666667 165.576,27.32 L165.576,27.32 L165.576,18.712 C165.576,17.7093333 165.352,16.904 164.904,16.296 C164.456,15.688 163.88,15.2133333 163.176,14.872 C162.472,14.5306667 161.693333,14.3013333 160.84,14.184 C159.986667,14.0666667 159.144,14.008 158.312,14.008 C157.394667,14.008 156.482667,14.0986667 155.576,14.28 C154.669333,14.4613333 153.853333,14.7653333 153.128,15.192 C152.402667,15.6186667 151.805333,16.184 151.336,16.888 C150.866667,17.592 150.6,18.4773333 150.536,19.544 L150.536,19.544 L155.08,19.544 C155.165333,18.648 155.464,18.008 155.976,17.624 C156.488,17.24 157.192,17.048 158.088,17.048 C158.493333,17.048 158.872,17.0746667 159.224,17.128 C159.576,17.1813333 159.885333,17.288 160.152,17.448 C160.418667,17.608 160.632,17.832 160.792,18.12 C160.952,18.408 161.032,18.7973333 161.032,19.288 C161.053333,19.7573333 160.914667,20.1146667 160.616,20.36 C160.317333,20.6053333 159.912,20.792 159.4,20.92 C158.888,21.048 158.301333,21.144 157.64,21.208 C156.978667,21.272 156.306667,21.3573333 155.624,21.464 C154.941333,21.5706667 154.264,21.7146667 153.592,21.896 C152.92,22.0773333 152.322667,22.3493333 151.8,22.712 C151.277333,23.0746667 150.850667,23.56 150.52,24.168 C150.189333,24.776 150.024,25.5493333 150.024,26.488 C150.024,27.3413333 150.168,28.0773333 150.456,28.696 C150.744,29.3146667 151.144,29.8266667 151.656,30.232 C152.168,30.6373333 152.765333,30.936 153.448,31.128 C154.130667,31.32 154.866667,31.416 155.656,31.416 Z M157.352,28.408 C156.989333,28.408 156.637333,28.376 156.296,28.312 C155.954667,28.248 155.656,28.136 155.4,27.976 C155.144,27.816 154.941333,27.5973333 154.792,27.32 C154.642667,27.0426667 154.568,26.7013333 154.568,26.296 C154.568,25.8693333 154.642667,25.5173333 154.792,25.24 C154.941333,24.9626667 155.138667,24.7333333 155.384,24.552 C155.629333,24.3706667 155.917333,24.2266667 156.248,24.12 C156.578667,24.0133333 156.914667,23.928 157.256,23.864 C157.618667,23.8 157.981333,23.7466667 158.344,23.704 C158.706667,23.6613333 159.053333,23.608 159.384,23.544 C159.714667,23.48 160.024,23.4 160.312,23.304 C160.6,23.208 160.84,23.0746667 161.032,22.904 L161.032,22.904 L161.032,24.6 C161.032,24.856 161.005333,25.1973333 160.952,25.624 C160.898667,26.0506667 160.754667,26.472 160.52,26.888 C160.285333,27.304 159.922667,27.6613333 159.432,27.96 C158.941333,28.2586667 158.248,28.408 157.352,28.408 Z M174.64,36.792 L174.64,28.952 L174.704,28.952 C175.258667,29.7626667 175.968,30.376 176.832,30.792 C177.696,31.208 178.64,31.416 179.664,31.416 C180.88,31.416 181.941333,31.1813333 182.848,30.712 C183.754667,30.2426667 184.512,29.6133333 185.12,28.824 C185.728,28.0346667 186.181333,27.128 186.48,26.104 C186.778667,25.08 186.928,24.0133333 186.928,22.904 C186.928,21.7306667 186.778667,20.6053333 186.48,19.528 C186.181333,18.4506667 185.722667,17.5066667 185.104,16.696 C184.485333,15.8853333 183.706667,15.2346667 182.768,14.744 C181.829333,14.2533333 180.709333,14.008 179.408,14.008 C178.384,14.008 177.445333,14.2106667 176.592,14.616 C175.738667,15.0213333 175.034667,15.672 174.48,16.568 L174.416,16.568 L174.416,14.456 L170.096,14.456 L170.096,36.792 L174.64,36.792 Z M178.448,28.024 C177.722667,28.024 177.104,27.8746667 176.592,27.576 C176.08,27.2773333 175.669333,26.888 175.36,26.408 C175.050667,25.928 174.826667,25.368 174.688,24.728 C174.549333,24.088 174.48,23.4373333 174.48,22.776 C174.48,22.0933333 174.544,21.432 174.672,20.792 C174.8,20.152 175.018667,19.5866667 175.328,19.096 C175.637333,18.6053333 176.042667,18.2053333 176.544,17.896 C177.045333,17.5866667 177.669333,17.432 178.416,17.432 C179.141333,17.432 179.754667,17.5866667 180.256,17.896 C180.757333,18.2053333 181.168,18.6106667 181.488,19.112 C181.808,19.6133333 182.037333,20.184 182.176,20.824 C182.314667,21.464 182.384,22.1146667 182.384,22.776 C182.384,23.4373333 182.32,24.088 182.192,24.728 C182.064,25.368 181.845333,25.928 181.536,26.408 C181.226667,26.888 180.821333,27.2773333 180.32,27.576 C179.818667,27.8746667 179.194667,28.024 178.448,28.024 Z M195.192,31 L195.192,22.328 C195.192,20.6426667 195.469333,19.432 196.024,18.696 C196.578667,17.96 197.474667,17.592 198.712,17.592 C199.8,17.592 200.557333,17.928 200.984,18.6 C201.410667,19.272 201.624,20.2906667 201.624,21.656 L201.624,31 L206.168,31 L206.168,20.824 C206.168,19.8 206.077333,18.8666667 205.896,18.024 C205.714667,17.1813333 205.4,16.4666667 204.952,15.88 C204.504,15.2933333 203.890667,14.8346667 203.112,14.504 C202.333333,14.1733333 201.336,14.008 200.12,14.008 C199.266667,14.008 198.392,14.2266667 197.496,14.664 C196.6,15.1013333 195.864,15.8 195.288,16.76 L195.192,16.76 L195.192,8.152 L190.648,8.152 L190.648,31 L195.192,31 Z M226.752,36.792 L226.752,14.456 L222.432,14.456 L222.432,16.568 L222.368,16.568 C221.856,15.6506667 221.146667,14.9946667 220.24,14.6 C219.333333,14.2053333 218.368,14.008 217.344,14.008 C216.085333,14.008 214.992,14.2533333 214.064,14.744 C213.136,15.2346667 212.362667,15.8906667 211.744,16.712 C211.125333,17.5333333 210.666667,18.4773333 210.368,19.544 C210.069333,20.6106667 209.92,21.7093333 209.92,22.84 C209.92,24.44 210.144,25.7893333 210.592,26.888 C211.04,27.9866667 211.605333,28.872 212.288,29.544 C212.970667,30.216 213.722667,30.696 214.544,30.984 C215.365333,31.272 216.16,31.416 216.928,31.416 C217.952,31.416 218.944,31.224 219.904,30.84 C220.864,30.456 221.610667,29.816 222.144,28.92 L222.208,28.92 L222.208,36.792 L226.752,36.792 Z M218.4,28.024 C217.653333,28.024 217.029333,27.8746667 216.528,27.576 C216.026667,27.2773333 215.621333,26.8773333 215.312,26.376 C215.002667,25.8746667 214.784,25.3093333 214.656,24.68 C214.528,24.0506667 214.464,23.4053333 214.464,22.744 C214.464,22.0613333 214.533333,21.4053333 214.672,20.776 C214.810667,20.1466667 215.04,19.5813333 215.36,19.08 C215.68,18.5786667 216.096,18.1786667 216.608,17.88 C217.12,17.5813333 217.749333,17.432 218.496,17.432 C219.2,17.432 219.802667,17.592 220.304,17.912 C220.805333,18.232 221.205333,18.648 221.504,19.16 C221.802667,19.672 222.021333,20.248 222.16,20.888 C222.298667,21.528 222.368,22.168 222.368,22.808 C222.368,23.4906667 222.298667,24.1466667 222.16,24.776 C222.021333,25.4053333 221.797333,25.96 221.488,26.44 C221.178667,26.92 220.773333,27.304 220.272,27.592 C219.770667,27.88 219.146667,28.024 218.4,28.024 Z M235.848,31 L235.848,8.152 L231.304,8.152 L231.304,31 L235.848,31 Z M250.032,24.216 L250.032,20.312 L240.4,20.312 L240.4,24.216 L250.032,24.216 Z M259,31 L259,23.544 C259,22.7973333 259.074667,22.104 259.224,21.464 C259.373333,20.824 259.624,20.264 259.976,19.784 C260.328,19.304 260.792,18.9253333 261.368,18.648 C261.944,18.3706667 262.648,18.232 263.48,18.232 C263.757333,18.232 264.045333,18.248 264.344,18.28 C264.642667,18.312 264.898667,18.3493333 265.112,18.392 L265.112,14.168 C264.749333,14.0613333 264.418667,14.008 264.12,14.008 C263.544,14.008 262.989333,14.0933333 262.456,14.264 C261.922667,14.4346667 261.421333,14.6746667 260.952,14.984 C260.482667,15.2933333 260.066667,15.6666667 259.704,16.104 C259.341333,16.5413333 259.053333,17.016 258.84,17.528 L258.776,17.528 L258.776,14.456 L254.456,14.456 L254.456,31 L259,31 Z M274.976,31.416 C276.853333,31.416 278.453333,30.9893333 279.776,30.136 C281.098667,29.2826667 282.08,27.864 282.72,25.88 L278.72,25.88 C278.570667,26.392 278.165333,26.8773333 277.504,27.336 C276.842667,27.7946667 276.053333,28.024 275.136,28.024 C273.856,28.024 272.874667,27.6933333 272.192,27.032 C271.509333,26.3706667 271.136,25.304 271.072,23.832 L283.008,23.832 C283.093333,22.552 282.986667,21.3253333 282.688,20.152 C282.389333,18.9786667 281.904,17.9333333 281.232,17.016 C280.56,16.0986667 279.701333,15.368 278.656,14.824 C277.610667,14.28 276.384,14.008 274.976,14.008 C273.717333,14.008 272.570667,14.232 271.536,14.68 C270.501333,15.128 269.610667,15.7413333 268.864,16.52 C268.117333,17.2986667 267.541333,18.2213333 267.136,19.288 C266.730667,20.3546667 266.528,21.5066667 266.528,22.744 C266.528,24.024 266.725333,25.1973333 267.12,26.264 C267.514667,27.3306667 268.074667,28.248 268.8,29.016 C269.525333,29.784 270.410667,30.376 271.456,30.792 C272.501333,31.208 273.674667,31.416 274.976,31.416 Z M278.464,20.952 L271.072,20.952 C271.093333,20.632 271.162667,20.2693333 271.28,19.864 C271.397333,19.4586667 271.6,19.0746667 271.888,18.712 C272.176,18.3493333 272.56,18.0453333 273.04,17.8 C273.52,17.5546667 274.122667,17.432 274.848,17.432 C275.957333,17.432 276.784,17.7306667 277.328,18.328 C277.872,18.9253333 278.250667,19.8 278.464,20.952 Z M302.824,36.792 L302.824,14.456 L298.504,14.456 L298.504,16.568 L298.44,16.568 C297.928,15.6506667 297.218667,14.9946667 296.312,14.6 C295.405333,14.2053333 294.44,14.008 293.416,14.008 C292.157333,14.008 291.064,14.2533333 290.136,14.744 C289.208,15.2346667 288.434667,15.8906667 287.816,16.712 C287.197333,17.5333333 286.738667,18.4773333 286.44,19.544 C286.141333,20.6106667 285.992,21.7093333 285.992,22.84 C285.992,24.44 286.216,25.7893333 286.664,26.888 C287.112,27.9866667 287.677333,28.872 288.36,29.544 C289.042667,30.216 289.794667,30.696 290.616,30.984 C291.437333,31.272 292.232,31.416 293,31.416 C294.024,31.416 295.016,31.224 295.976,30.84 C296.936,30.456 297.682667,29.816 298.216,28.92 L298.28,28.92 L298.28,36.792 L302.824,36.792 Z M294.472,28.024 C293.725333,28.024 293.101333,27.8746667 292.6,27.576 C292.098667,27.2773333 291.693333,26.8773333 291.384,26.376 C291.074667,25.8746667 290.856,25.3093333 290.728,24.68 C290.6,24.0506667 290.536,23.4053333 290.536,22.744 C290.536,22.0613333 290.605333,21.4053333 290.744,20.776 C290.882667,20.1466667 291.112,19.5813333 291.432,19.08 C291.752,18.5786667 292.168,18.1786667 292.68,17.88 C293.192,17.5813333 293.821333,17.432 294.568,17.432 C295.272,17.432 295.874667,17.592 296.376,17.912 C296.877333,18.232 297.277333,18.648 297.576,19.16 C297.874667,19.672 298.093333,20.248 298.232,20.888 C298.370667,21.528 298.44,22.168 298.44,22.808 C298.44,23.4906667 298.370667,24.1466667 298.232,24.776 C298.093333,25.4053333 297.869333,25.96 297.56,26.44 C297.250667,26.92 296.845333,27.304 296.344,27.592 C295.842667,27.88 295.218667,28.024 294.472,28.024 Z M313.296,31.416 C314.256,31.416 315.194667,31.2026667 316.112,30.776 C317.029333,30.3493333 317.776,29.656 318.352,28.696 L318.448,28.696 L318.448,31 L322.768,31 L322.768,14.456 L318.224,14.456 L318.224,23.128 C318.224,24.8133333 317.946667,26.024 317.392,26.76 C316.837333,27.496 315.941333,27.864 314.704,27.864 C313.616,27.864 312.858667,27.528 312.432,26.856 C312.005333,26.184 311.792,25.1653333 311.792,23.8 L311.792,14.456 L307.248,14.456 L307.248,24.632 C307.248,25.656 307.338667,26.5893333 307.52,27.432 C307.701333,28.2746667 308.016,28.9893333 308.464,29.576 C308.912,30.1626667 309.525333,30.616 310.304,30.936 C311.082667,31.256 312.08,31.416 313.296,31.416 Z M334.872,31.416 C336.749333,31.416 338.349333,30.9893333 339.672,30.136 C340.994667,29.2826667 341.976,27.864 342.616,25.88 L338.616,25.88 C338.466667,26.392 338.061333,26.8773333 337.4,27.336 C336.738667,27.7946667 335.949333,28.024 335.032,28.024 C333.752,28.024 332.770667,27.6933333 332.088,27.032 C331.405333,26.3706667 331.032,25.304 330.968,23.832 L342.904,23.832 C342.989333,22.552 342.882667,21.3253333 342.584,20.152 C342.285333,18.9786667 341.8,17.9333333 341.128,17.016 C340.456,16.0986667 339.597333,15.368 338.552,14.824 C337.506667,14.28 336.28,14.008 334.872,14.008 C333.613333,14.008 332.466667,14.232 331.432,14.68 C330.397333,15.128 329.506667,15.7413333 328.76,16.52 C328.013333,17.2986667 327.437333,18.2213333 327.032,19.288 C326.626667,20.3546667 326.424,21.5066667 326.424,22.744 C326.424,24.024 326.621333,25.1973333 327.016,26.264 C327.410667,27.3306667 327.970667,28.248 328.696,29.016 C329.421333,29.784 330.306667,30.376 331.352,30.792 C332.397333,31.208 333.570667,31.416 334.872,31.416 Z M338.36,20.952 L330.968,20.952 C330.989333,20.632 331.058667,20.2693333 331.176,19.864 C331.293333,19.4586667 331.496,19.0746667 331.784,18.712 C332.072,18.3493333 332.456,18.0453333 332.936,17.8 C333.416,17.5546667 334.018667,17.432 334.744,17.432 C335.853333,17.432 336.68,17.7306667 337.224,18.328 C337.768,18.9253333 338.146667,19.8 338.36,20.952 Z M353.568,31.416 C354.506667,31.416 355.429333,31.3253333 356.336,31.144 C357.242667,30.9626667 358.048,30.648 358.752,30.2 C359.456,29.752 360.026667,29.16 360.464,28.424 C360.901333,27.688 361.12,26.776 361.12,25.688 C361.12,24.92 360.970667,24.2746667 360.672,23.752 C360.373333,23.2293333 359.978667,22.792 359.488,22.44 C358.997333,22.088 358.437333,21.8053333 357.808,21.592 C357.178667,21.3786667 356.533333,21.1973333 355.872,21.048 C355.232,20.8986667 354.602667,20.76 353.984,20.632 C353.365333,20.504 352.816,20.36 352.336,20.2 C351.856,20.04 351.466667,19.832 351.168,19.576 C350.869333,19.32 350.72,18.9893333 350.72,18.584 C350.72,18.2426667 350.805333,17.9706667 350.976,17.768 C351.146667,17.5653333 351.354667,17.4106667 351.6,17.304 C351.845333,17.1973333 352.117333,17.128 352.416,17.096 C352.714667,17.064 352.992,17.048 353.248,17.048 C354.058667,17.048 354.762667,17.2026667 355.36,17.512 C355.957333,17.8213333 356.288,18.4133333 356.352,19.288 L360.672,19.288 C360.586667,18.264 360.325333,17.416 359.888,16.744 C359.450667,16.072 358.901333,15.5333333 358.24,15.128 C357.578667,14.7226667 356.826667,14.4346667 355.984,14.264 C355.141333,14.0933333 354.272,14.008 353.376,14.008 C352.48,14.008 351.605333,14.088 350.752,14.248 C349.898667,14.408 349.130667,14.6853333 348.448,15.08 C347.765333,15.4746667 347.216,16.0133333 346.8,16.696 C346.384,17.3786667 346.176,18.2533333 346.176,19.32 C346.176,20.0453333 346.325333,20.6586667 346.624,21.16 C346.922667,21.6613333 347.317333,22.0773333 347.808,22.408 C348.298667,22.7386667 348.858667,23.0053333 349.488,23.208 C350.117333,23.4106667 350.762667,23.5866667 351.424,23.736 C353.045333,24.0773333 354.309333,24.4186667 355.216,24.76 C356.122667,25.1013333 356.576,25.6133333 356.576,26.296 C356.576,26.7013333 356.48,27.0373333 356.288,27.304 C356.096,27.5706667 355.856,27.784 355.568,27.944 C355.28,28.104 354.96,28.2213333 354.608,28.296 C354.256,28.3706667 353.92,28.408 353.6,28.408 C353.152,28.408 352.72,28.3546667 352.304,28.248 C351.888,28.1413333 351.52,27.976 351.2,27.752 C350.88,27.528 350.618667,27.24 350.416,26.888 C350.213333,26.536 350.112,26.1146667 350.112,25.624 L345.792,25.624 C345.834667,26.7333333 346.085333,27.656 346.544,28.392 C347.002667,29.128 347.589333,29.72 348.304,30.168 C349.018667,30.616 349.834667,30.936 350.752,31.128 C351.669333,31.32 352.608,31.416 353.568,31.416 Z M371.208,31.16 C371.656,31.16 372.114667,31.1493333 372.584,31.128 C373.053333,31.1066667 373.48,31.064 373.864,31 L373.864,27.48 C373.650667,27.5226667 373.426667,27.5546667 373.192,27.576 C372.957333,27.5973333 372.712,27.608 372.456,27.608 C371.688,27.608 371.176,27.48 370.92,27.224 C370.664,26.968 370.536,26.456 370.536,25.688 L370.536,17.496 L373.864,17.496 L373.864,14.456 L370.536,14.456 L370.536,9.496 L365.992,9.496 L365.992,14.456 L363.24,14.456 L363.24,17.496 L365.992,17.496 L365.992,27.256 C365.992,28.088 366.130667,28.76 366.408,29.272 C366.685333,29.784 367.064,30.1786667 367.544,30.456 C368.024,30.7333333 368.578667,30.92 369.208,31.016 C369.837333,31.112 370.504,31.16 371.208,31.16 Z" id="graphql-request" fill="#E535AB"></path>
        </g>
    </g>
</svg>